<svg width="235" height="62" viewBox="0 0 235 62" fill="none" xmlns="http://www.w3.org/2000/svg">
  <path d="M2.25609 9.99999C0.521935 9.99999 -0.561911 11.8773 0.305167 13.3791L21.549 50.1745C22.4161 51.6764 24.5838 51.6764 25.4509 50.1745L46.6947 13.3791C47.5618 11.8773 46.478 9.99999 44.7438 9.99999L2.25609 9.99999Z" fill="url(#paint0_linear_577_42)" />
  <path fill-rule="evenodd" clip-rule="evenodd" d="M22.4653 51.0528C23.1333 51.8209 24.2994 52.1082 25.2991 51.531L43.9947 40.7371C45.4965 39.87 45.4965 37.7023 43.9947 36.8352L35.1125 31.7071L0.382055 11.0024C-0.0652321 11.6748 -0.156153 12.5801 0.305167 13.3791L21.549 50.1745C21.7791 50.573 22.1007 50.8657 22.4653 51.0528Z" fill="#FF43AC" />
  <path d="M57.24 43V19.96H72.12V23.576H61.096V29.256H70.2V32.872H61.096V39.384H72.12V43H57.24ZM82.8868 43.48C81.2974 43.48 79.9108 43.08 78.7268 42.28C77.5428 41.48 76.6254 40.392 75.9748 39.016C75.3241 37.64 74.9988 36.088 74.9988 34.36C74.9988 32.6107 75.3241 31.0533 75.9748 29.688C76.6361 28.312 77.5694 27.2293 78.7748 26.44C79.9801 25.64 81.3988 25.24 83.0308 25.24C84.6734 25.24 86.0494 25.64 87.1588 26.44C88.2788 27.2293 89.1268 28.312 89.7028 29.688C90.2788 31.064 90.5668 32.6213 90.5668 34.36C90.5668 36.0773 90.2788 37.6293 89.7028 39.016C89.1268 40.392 88.2681 41.48 87.1268 42.28C85.9854 43.08 84.5721 43.48 82.8868 43.48ZM83.4788 40.024C84.5134 40.024 85.3454 39.7893 85.9748 39.32C86.6148 38.84 87.0788 38.1733 87.3668 37.32C87.6654 36.4667 87.8148 35.48 87.8148 34.36C87.8148 33.2293 87.6654 32.2427 87.3668 31.4C87.0788 30.5467 86.6254 29.8853 86.0068 29.416C85.3881 28.936 84.5881 28.696 83.6068 28.696C82.5721 28.696 81.7188 28.952 81.0468 29.464C80.3748 29.9653 79.8788 30.648 79.5588 31.512C79.2388 32.3653 79.0788 33.3147 79.0788 34.36C79.0788 35.416 79.2334 36.376 79.5428 37.24C79.8628 38.0933 80.3481 38.7707 80.9988 39.272C81.6494 39.7733 82.4761 40.024 83.4788 40.024ZM87.8148 43V30.872H87.3348V19.96H91.2228V43H87.8148ZM102.973 51.16C102.013 51.16 101.09 51.0107 100.205 50.712C99.3301 50.4133 98.5408 49.9813 97.8368 49.416C97.1328 48.8613 96.5568 48.1893 96.1088 47.4L99.6608 45.64C99.9914 46.2693 100.455 46.7333 101.053 47.032C101.661 47.3413 102.306 47.496 102.989 47.496C103.789 47.496 104.503 47.352 105.133 47.064C105.762 46.7867 106.247 46.3707 106.589 45.816C106.941 45.272 107.106 44.5893 107.085 43.768V38.856H107.565V25.72H110.941V43.832C110.941 44.2693 110.919 44.6853 110.877 45.08C110.845 45.4853 110.786 45.88 110.701 46.264C110.445 47.384 109.954 48.3013 109.229 49.016C108.503 49.7413 107.602 50.28 106.525 50.632C105.458 50.984 104.274 51.16 102.973 51.16ZM102.637 43.48C101.047 43.48 99.6608 43.08 98.4768 42.28C97.2928 41.48 96.3754 40.392 95.7248 39.016C95.0741 37.64 94.7488 36.088 94.7488 34.36C94.7488 32.6107 95.0741 31.0533 95.7248 29.688C96.3861 28.312 97.3194 27.2293 98.5248 26.44C99.7301 25.64 101.149 25.24 102.781 25.24C104.423 25.24 105.799 25.64 106.909 26.44C108.029 27.2293 108.877 28.312 109.453 29.688C110.029 31.064 110.317 32.6213 110.317 34.36C110.317 36.0773 110.029 37.6293 109.453 39.016C108.877 40.392 108.018 41.48 106.877 42.28C105.735 43.08 104.322 43.48 102.637 43.48ZM103.229 40.024C104.263 40.024 105.095 39.7893 105.725 39.32C106.365 38.84 106.829 38.1733 107.117 37.32C107.415 36.4667 107.565 35.48 107.565 34.36C107.565 33.2293 107.415 32.2427 107.117 31.4C106.829 30.5467 106.375 29.8853 105.757 29.416C105.138 28.936 104.338 28.696 103.357 28.696C102.322 28.696 101.469 28.952 100.797 29.464C100.125 29.9653 99.6288 30.648 99.3088 31.512C98.9888 32.3653 98.8288 33.3147 98.8288 34.36C98.8288 35.416 98.9834 36.376 99.2928 37.24C99.6128 38.0933 100.098 38.7707 100.749 39.272C101.399 39.7733 102.226 40.024 103.229 40.024ZM123.284 43.48C121.534 43.48 119.998 43.1013 118.676 42.344C117.353 41.5867 116.318 40.536 115.572 39.192C114.836 37.848 114.468 36.3013 114.468 34.552C114.468 32.664 114.83 31.0267 115.556 29.64C116.281 28.2427 117.289 27.16 118.58 26.392C119.87 25.624 121.364 25.24 123.06 25.24C124.852 25.24 126.372 25.6613 127.62 26.504C128.878 27.336 129.812 28.5147 130.42 30.04C131.028 31.5653 131.257 33.3627 131.108 35.432H127.284V34.024C127.273 32.1467 126.942 30.776 126.292 29.912C125.641 29.048 124.617 28.616 123.22 28.616C121.641 28.616 120.468 29.1067 119.7 30.088C118.932 31.0587 118.548 32.4827 118.548 34.36C118.548 36.1093 118.932 37.464 119.7 38.424C120.468 39.384 121.588 39.864 123.06 39.864C124.009 39.864 124.825 39.656 125.508 39.24C126.201 38.8133 126.734 38.2 127.108 37.4L130.916 38.552C130.254 40.1093 129.23 41.32 127.844 42.184C126.468 43.048 124.948 43.48 123.284 43.48ZM117.332 35.432V32.52H129.22V35.432H117.332ZM143.206 43.48C141.52 43.48 140 43.1867 138.646 42.6C137.302 42.0133 136.192 41.176 135.318 40.088C134.454 38.9893 133.904 37.688 133.67 36.184L137.67 35.576C138.011 36.9413 138.71 37.9973 139.766 38.744C140.832 39.4907 142.059 39.864 143.446 39.864C144.267 39.864 145.04 39.736 145.766 39.48C146.491 39.224 147.078 38.8507 147.526 38.36C147.984 37.8693 148.214 37.2667 148.214 36.552C148.214 36.232 148.16 35.9387 148.054 35.672C147.947 35.3947 147.787 35.1493 147.574 34.936C147.371 34.7227 147.104 34.5307 146.774 34.36C146.454 34.1787 146.08 34.024 145.654 33.896L139.702 32.136C139.19 31.9867 138.635 31.7893 138.038 31.544C137.451 31.288 136.891 30.9413 136.358 30.504C135.835 30.056 135.403 29.4907 135.062 28.808C134.731 28.1147 134.566 27.2613 134.566 26.248C134.566 24.7653 134.939 23.5227 135.686 22.52C136.443 21.5067 137.456 20.7493 138.726 20.248C140.006 19.7467 141.424 19.5013 142.982 19.512C144.56 19.5227 145.968 19.7947 147.206 20.328C148.443 20.8507 149.478 21.6133 150.31 22.616C151.142 23.6187 151.728 24.8293 152.07 26.248L147.926 26.968C147.755 26.1573 147.424 25.4693 146.934 24.904C146.454 24.328 145.862 23.8907 145.158 23.592C144.464 23.2933 143.723 23.1333 142.934 23.112C142.166 23.1013 141.451 23.2187 140.79 23.464C140.139 23.6987 139.611 24.04 139.206 24.488C138.811 24.936 138.614 25.4587 138.614 26.056C138.614 26.6213 138.784 27.0853 139.126 27.448C139.467 27.8 139.888 28.0827 140.39 28.296C140.902 28.4987 141.419 28.6693 141.942 28.808L146.07 29.96C146.635 30.1093 147.27 30.312 147.974 30.568C148.678 30.824 149.355 31.1813 150.006 31.64C150.656 32.0987 151.19 32.7013 151.606 33.448C152.032 34.1947 152.246 35.144 152.246 36.296C152.246 37.4907 151.995 38.5413 151.494 39.448C151.003 40.344 150.336 41.0907 149.494 41.688C148.651 42.2853 147.686 42.7333 146.598 43.032C145.52 43.3307 144.39 43.48 143.206 43.48ZM163.565 43.48C161.815 43.48 160.279 43.1013 158.957 42.344C157.634 41.5867 156.599 40.536 155.853 39.192C155.117 37.848 154.749 36.3013 154.749 34.552C154.749 32.664 155.111 31.0267 155.837 29.64C156.562 28.2427 157.57 27.16 158.861 26.392C160.151 25.624 161.645 25.24 163.341 25.24C165.133 25.24 166.653 25.6613 167.901 26.504C169.159 27.336 170.093 28.5147 170.701 30.04C171.309 31.5653 171.538 33.3627 171.389 35.432H167.565V34.024C167.554 32.1467 167.223 30.776 166.573 29.912C165.922 29.048 164.898 28.616 163.501 28.616C161.922 28.616 160.749 29.1067 159.981 30.088C159.213 31.0587 158.829 32.4827 158.829 34.36C158.829 36.1093 159.213 37.464 159.981 38.424C160.749 39.384 161.869 39.864 163.341 39.864C164.29 39.864 165.106 39.656 165.789 39.24C166.482 38.8133 167.015 38.2 167.389 37.4L171.197 38.552C170.535 40.1093 169.511 41.32 168.125 42.184C166.749 43.048 165.229 43.48 163.565 43.48ZM157.613 35.432V32.52H169.501V35.432H157.613ZM174.959 43V25.72H178.367V29.928L177.951 29.384C178.164 28.808 178.447 28.2853 178.799 27.816C179.161 27.336 179.593 26.9413 180.095 26.632C180.521 26.344 180.991 26.12 181.503 25.96C182.025 25.7893 182.559 25.688 183.103 25.656C183.647 25.6133 184.175 25.6347 184.687 25.72V29.32C184.175 29.1707 183.583 29.1227 182.911 29.176C182.249 29.2293 181.652 29.416 181.119 29.736C180.585 30.024 180.148 30.392 179.807 30.84C179.476 31.288 179.231 31.8 179.071 32.376C178.911 32.9413 178.831 33.5547 178.831 34.216V43H174.959ZM192.412 43L186.14 25.72H189.996L194.348 38.248L198.684 25.72H202.556L196.284 43H192.412ZM212.659 43.48C210.909 43.48 209.373 43.1013 208.051 42.344C206.728 41.5867 205.693 40.536 204.947 39.192C204.211 37.848 203.843 36.3013 203.843 34.552C203.843 32.664 204.205 31.0267 204.931 29.64C205.656 28.2427 206.664 27.16 207.955 26.392C209.245 25.624 210.739 25.24 212.435 25.24C214.227 25.24 215.747 25.6613 216.995 26.504C218.253 27.336 219.187 28.5147 219.795 30.04C220.403 31.5653 220.632 33.3627 220.483 35.432H216.659V34.024C216.648 32.1467 216.317 30.776 215.667 29.912C215.016 29.048 213.992 28.616 212.595 28.616C211.016 28.616 209.843 29.1067 209.075 30.088C208.307 31.0587 207.923 32.4827 207.923 34.36C207.923 36.1093 208.307 37.464 209.075 38.424C209.843 39.384 210.963 39.864 212.435 39.864C213.384 39.864 214.2 39.656 214.883 39.24C215.576 38.8133 216.109 38.2 216.483 37.4L220.291 38.552C219.629 40.1093 218.605 41.32 217.219 42.184C215.843 43.048 214.323 43.48 212.659 43.48ZM206.707 35.432V32.52H218.595V35.432H206.707ZM224.053 43V25.72H227.461V29.928L227.045 29.384C227.258 28.808 227.541 28.2853 227.893 27.816C228.255 27.336 228.687 26.9413 229.189 26.632C229.615 26.344 230.085 26.12 230.597 25.96C231.119 25.7893 231.653 25.688 232.197 25.656C232.741 25.6133 233.269 25.6347 233.781 25.72V29.32C233.269 29.1707 232.677 29.1227 232.005 29.176C231.343 29.2293 230.746 29.416 230.213 29.736C229.679 30.024 229.242 30.392 228.901 30.84C228.57 31.288 228.325 31.8 228.165 32.376C228.005 32.9413 227.925 33.5547 227.925 34.216V43H224.053Z" fill="url(#paint1_linear_577_42)" />
  <defs>
    <linearGradient id="paint0_linear_577_42" x1="45.9566" y1="51.2584" x2="-6.17558" y2="36.4239" gradientUnits="userSpaceOnUse">
      <stop stop-color="#EB2EEF" />
      <stop offset="1" stop-color="#663DDB" />
    </linearGradient>
    <linearGradient id="paint1_linear_577_42" x1="55" y1="62" x2="240.821" y2="47.6372" gradientUnits="userSpaceOnUse">
      <stop stop-color="#CF31EA" />
      <stop offset="1" stop-color="#FF43AC" />
    </linearGradient>
  </defs>
</svg>
  