<svg xmlns="http://www.w3.org/2000/svg" width="110" height="62" fill="none" viewBox="0 0 110 62">
  <path fill="url(#a)" d="M2.256 10C.522 10-.562 11.877.306 13.38l21.243 36.794c.867 1.502 3.035 1.502 3.902 0L46.695 13.38c.867-1.502-.217-3.379-1.951-3.379H2.256Z"/>
  <path fill="#FF43AC" fill-rule="evenodd" d="M22.465 51.053a2.25 2.25 0 0 0 2.834.478l18.696-10.794c1.502-.867 1.502-3.035 0-3.902l-8.883-5.128L.383 11.002a2.236 2.236 0 0 0-.077 2.377L21.55 50.175c.23.398.552.69.916.878Z" clip-rule="evenodd"/>
  <path fill="url(#b)" d="M60.356 44.332a2.987 2.987 0 0 1-2.173-.895 2.986 2.986 0 0 1-.895-2.173c0-.835.299-1.55.895-2.148a2.987 2.987 0 0 1 2.173-.894c.819 0 1.535.298 2.148.895.614.596.92 1.312.92 2.147 0 .563-.144 1.078-.434 1.547-.281.46-.652.831-1.112 1.112-.46.273-.968.41-1.522.41Zm13.14.039c-1.253 0-2.37-.218-3.35-.652-.98-.443-1.756-1.095-2.327-1.956-.562-.87-.844-1.952-.844-3.247 0-1.091.2-2.008.601-2.749.4-.741.946-1.338 1.637-1.79a7.94 7.94 0 0 1 2.352-1.022c.886-.23 1.815-.392 2.787-.486 1.142-.12 2.062-.23 2.761-.333.7-.11 1.206-.272 1.522-.485.315-.213.473-.529.473-.947v-.076c0-.81-.256-1.436-.767-1.88-.503-.443-1.22-.664-2.148-.664-.98 0-1.76.217-2.34.652-.58.426-.963.963-1.15 1.61l-5.037-.409c.255-1.193.758-2.224 1.508-3.093.75-.878 1.718-1.551 2.902-2.02 1.194-.477 2.574-.716 4.142-.716 1.091 0 2.135.128 3.132.383 1.006.256 1.897.652 2.672 1.19a5.778 5.778 0 0 1 1.854 2.07c.452.836.678 1.837.678 3.005V44h-5.165v-2.723h-.154a5.543 5.543 0 0 1-1.265 1.624 5.859 5.859 0 0 1-1.905 1.086c-.742.256-1.598.384-2.57.384Zm1.559-3.759c.801 0 1.509-.157 2.122-.473a3.76 3.76 0 0 0 1.445-1.304c.35-.545.524-1.163.524-1.854v-2.083c-.17.11-.405.213-.703.306-.29.086-.618.167-.984.243a49.59 49.59 0 0 1-1.1.192l-.997.14a6.738 6.738 0 0 0-1.675.448c-.477.205-.848.482-1.112.831-.264.341-.396.767-.396 1.279 0 .741.268 1.308.805 1.7.546.383 1.236.575 2.071.575ZM93.33 24.364l3.605 6.865 3.695-6.865h5.586l-5.689 9.818L106.37 44h-5.561l-3.874-6.788L93.125 44H87.5l5.83-9.818-5.625-9.818h5.625Z"/>
  <defs>
    <linearGradient id="a" x1="45.957" x2="-6.175" y1="51.258" y2="36.424" gradientUnits="userSpaceOnUse">
      <stop stop-color="#EB2EEF"/>
      <stop offset="1" stop-color="#663DDB"/>
    </linearGradient>
    <linearGradient id="b" x1="55" x2="112.086" y1="62" y2="60.652" gradientUnits="userSpaceOnUse">
      <stop stop-color="#CF31EA"/>
      <stop offset="1" stop-color="#FF43AC"/>
    </linearGradient>
  </defs>
</svg>
